<?xml version="1.0" encoding="UTF-8"?>
<svg version="1.1" xmlns="http://www.w3.org/2000/svg" width="1780" height="345">
<path d="M0 0 C1.95578771 -0.00599169 3.91157306 -0.01279871 5.86735535 -0.02035522 C11.15900379 -0.03795934 16.45058747 -0.04270831 21.74226236 -0.0439868 C25.05545498 -0.04541238 28.36863135 -0.04968972 31.68181992 -0.05498123 C43.26103503 -0.0734646 54.84020422 -0.08165416 66.41943359 -0.08007812 C77.17916907 -0.07887791 87.93870356 -0.09996112 98.69838822 -0.13156545 C107.96331629 -0.15780046 117.22817903 -0.16844236 126.49314392 -0.16716731 C132.01452516 -0.1666597 137.53572774 -0.17223059 143.05707169 -0.19352341 C148.25615951 -0.21302732 153.45490048 -0.21294786 158.65400124 -0.19849014 C160.5501119 -0.19641579 162.44624498 -0.20101985 164.34231758 -0.21321106 C188.08499894 -0.35584585 207.41032258 5.44424444 224.84326172 22.40771484 C237.71100349 36.05001971 244.80920045 52.92052785 244.82138062 71.64901733 C244.82576287 72.47589951 244.83014512 73.30278169 244.83466017 74.1547209 C244.84798518 76.91792832 244.85421289 79.68110389 244.86035156 82.44433594 C244.8682577 84.42908876 244.87652697 86.41384017 244.88513184 88.39859009 C244.91129982 94.91203448 244.92665753 101.42548512 244.94091797 107.93896484 C244.94628041 110.18661121 244.95165792 112.43425754 244.95705032 114.68190384 C244.97867427 124.03766766 244.99740752 133.39342979 245.00867271 142.74921227 C245.02488941 156.12646299 245.05801762 169.50342226 245.11507356 182.88056314 C245.1538795 192.30251223 245.17331818 201.72438372 245.17859328 211.14641058 C245.18223304 216.76516306 245.19410718 222.38360431 245.22669601 228.00226974 C245.25696325 233.296546 245.26302237 238.59032573 245.25131226 243.88467026 C245.25109305 245.81626749 245.25926933 247.74788903 245.27696609 249.67940521 C245.4544584 270.18625884 240.51256844 289.93032194 225.92016602 305.16333008 C209.60291374 321.51930782 190.90303553 328.7702797 168.0851593 328.8326416 C166.24606148 328.82486804 164.40696538 328.8166756 162.56787109 328.80810547 C160.59001656 328.81353804 158.61216608 328.82066701 156.63432312 328.8293457 C151.30575915 328.84744703 145.97750796 328.84056643 140.64893913 328.82782936 C135.04659111 328.81763286 129.44426813 328.82711337 123.84191895 328.83337402 C114.43753297 328.84063118 105.03327305 328.83111359 95.62890625 328.81201172 C84.78893445 328.79024679 73.9492637 328.79729953 63.10929918 328.81931734 C53.76698768 328.83752655 44.42476629 328.84000275 35.08244276 328.82956266 C29.5181533 328.82335801 23.95400488 328.82240812 18.38972473 328.83570862 C13.15607064 328.84734718 7.92280099 328.83909646 2.689188 328.81613159 C0.77976428 328.81088698 -1.12969236 328.81228445 -3.03910255 328.82118225 C-26.55396048 328.92057564 -45.16255872 322.80684532 -62.50830078 306.20849609 C-75.02824094 293.10510242 -82.67484849 274.7573531 -82.59994507 256.64720154 C-82.60447618 255.82592319 -82.60900729 255.00464484 -82.61367571 254.15847927 C-82.6262411 251.43217289 -82.62470445 248.70606829 -82.62304688 245.97973633 C-82.62903719 244.01424404 -82.63584389 242.0487541 -82.6434021 240.08326721 C-82.66102173 234.7605689 -82.66575588 229.43793496 -82.66703367 224.11521029 C-82.66845854 220.7830945 -82.67273458 217.45099489 -82.67802811 214.11888313 C-82.69651765 202.47483411 -82.70470039 190.83083079 -82.703125 179.18676758 C-82.7019251 168.36513735 -82.7230006 157.54370706 -82.75461233 146.72212738 C-82.7808472 137.40626452 -82.79148922 128.09046666 -82.79021418 118.77456719 C-82.78970651 113.22187232 -82.79528104 107.6693551 -82.81657028 102.11669731 C-82.83607353 96.88725468 -82.83599517 91.65815689 -82.82153702 86.4287014 C-82.81946247 84.52130372 -82.82406786 82.61388376 -82.83625793 80.7065239 C-82.97439445 57.57358119 -77.50302398 37.7952418 -60.84814453 20.74755859 C-42.7713428 3.99002655 -23.85705173 -0.01460877 0 0 Z " fill="#106F57" transform="translate(89.33251953125,6.70947265625)"/>
<path d="M0 0 C5.03036957 4.62130655 8.58543932 9.6173003 11.77734375 15.6328125 C12.63972656 14.54806641 12.63972656 14.54806641 13.51953125 13.44140625 C23.72927565 0.74104946 32.88907297 -6.51369036 49.28125 -8.87109375 C63.9450598 -10.32371307 76.40692291 -7.8870764 87.953125 1.37890625 C98.16821006 10.6321189 102.11234064 23.82264134 102.93807602 37.24564743 C103.19174884 44.51797759 103.12210958 51.79113777 103.0703125 59.06640625 C103.06470585 61.39909083 103.06044082 63.73177898 103.05744934 66.06446838 C103.0460847 72.155345 103.01669102 78.2460014 102.9833374 84.33679199 C102.95245433 90.57150292 102.9389053 96.80624999 102.92382812 103.04101562 C102.89181214 115.23839276 102.83911407 127.43554972 102.77734375 139.6328125 C92.87734375 139.6328125 82.97734375 139.6328125 72.77734375 139.6328125 C72.76799805 136.56500488 72.75865234 133.49719727 72.74902344 130.33642578 C72.71519277 120.17827502 72.65960977 110.02032611 72.59344101 99.86233711 C72.55400274 93.70606577 72.52179616 87.54993668 72.50634766 81.39355469 C72.49115734 75.44762509 72.45666881 69.50208671 72.40903473 63.55633163 C72.39424556 61.2926868 72.38630416 59.02898611 72.3854599 56.76529312 C72.38308115 53.58415713 72.35592716 50.40409432 72.32324219 47.22314453 C72.32827255 46.29597122 72.33330292 45.36879791 72.33848572 44.41352844 C72.22629943 37.31436568 70.85309262 30.28604436 66.16326523 24.71568489 C60.6131663 19.35271172 53.90536838 17.51390924 46.33984375 17.2578125 C38.24002186 17.52969463 31.19037686 19.25621123 25.2421875 24.98046875 C15.35954752 36.12808665 17.4414152 52.57830621 17.36328125 66.48828125 C17.34454592 68.6024906 17.32497079 70.71669266 17.30459595 72.83088684 C17.25351854 78.36271849 17.21376302 83.89457432 17.17645264 89.42651367 C17.13625917 95.08453228 17.08523721 100.74245243 17.03515625 106.40039062 C16.9386861 117.47780191 16.85519204 128.55525468 16.77734375 139.6328125 C7.20734375 139.6328125 -2.36265625 139.6328125 -12.22265625 139.6328125 C-12.23200195 136.55976807 -12.24134766 133.48672363 -12.25097656 130.32055664 C-12.28479187 120.15042483 -12.34036637 109.98049497 -12.40655899 99.81052494 C-12.44601432 93.64637777 -12.47821256 87.48237305 -12.49365234 81.31811523 C-12.50883139 75.36570619 -12.54330001 69.41368882 -12.59096527 63.46145439 C-12.60576603 61.19419197 -12.61369651 58.92687363 -12.6145401 56.65956306 C-12.61691534 53.47582706 -12.64404138 50.29316853 -12.67675781 47.10961914 C-12.67172745 46.17885056 -12.66669708 45.24808197 -12.66151428 44.28910828 C-12.79065552 36.12979406 -15.24553462 28.44390298 -21.22265625 22.6328125 C-29.01826864 17.88135453 -36.51450191 16.51104756 -45.55859375 18.0234375 C-53.03096301 20.06850698 -58.90894078 24.74356697 -62.86328125 31.390625 C-66.58739695 39.24551271 -67.37039077 46.36395994 -67.42797852 54.94287109 C-67.44282791 56.31943878 -67.44282791 56.31943878 -67.45797729 57.72381592 C-67.48944584 60.74293479 -67.51429159 63.76206937 -67.5390625 66.78125 C-67.55964468 68.88018186 -67.58064148 70.9791097 -67.60203552 73.07803345 C-67.65712561 78.59186534 -67.70659233 84.10573383 -67.75488281 89.61962891 C-67.80519341 95.2503585 -67.86082951 100.8810352 -67.91601562 106.51171875 C-68.02343736 117.55203975 -68.12442525 128.59240589 -68.22265625 139.6328125 C-77.79265625 139.6328125 -87.36265625 139.6328125 -97.22265625 139.6328125 C-97.22265625 91.1228125 -97.22265625 42.6128125 -97.22265625 -7.3671875 C-87.98265625 -7.3671875 -78.74265625 -7.3671875 -69.22265625 -7.3671875 C-68.89265625 0.2228125 -68.56265625 7.8128125 -68.22265625 15.6328125 C-67.37703125 14.1271875 -66.53140625 12.6215625 -65.66015625 11.0703125 C-59.48306608 0.90892752 -51.68020733 -5.1214553 -40.015625 -8.21875 C-25.88074475 -10.78251304 -11.4152039 -9.29090215 0 0 Z " fill="#2B2B2B" transform="translate(1501.22265625,128.3671875)"/>
<path d="M0 0 C0.92393051 -0.0065712 1.84786102 -0.0131424 2.79978943 -0.01991272 C5.86172567 -0.03964504 8.92361284 -0.0513091 11.9855957 -0.0612793 C13.03198526 -0.06535482 14.07837482 -0.06943035 15.15647316 -0.07362938 C20.69643583 -0.09449128 26.23637373 -0.10879168 31.77636719 -0.11816406 C37.49166257 -0.12921997 43.2065677 -0.16361035 48.92172527 -0.20333576 C53.32189139 -0.22951462 57.72196478 -0.23785712 62.12220192 -0.24144554 C64.22846928 -0.24630932 66.33473255 -0.25791732 68.44092369 -0.27648354 C71.39452144 -0.30089826 74.34711294 -0.29990535 77.30078125 -0.29296875 C78.16497681 -0.30577881 79.02917236 -0.31858887 79.91955566 -0.33178711 C85.68789792 -0.28260575 90.34399798 0.56461846 94.97387695 4.17700195 C100.42916651 9.98379504 101.85495511 15.29157099 101.71850586 23.08374023 C101.72580719 24.02966034 101.73310852 24.97558044 101.7406311 25.95016479 C101.75672972 29.04996511 101.72972637 32.14763698 101.70043945 35.24731445 C101.69940103 37.41486611 101.70044116 39.58241968 101.70346069 41.74996948 C101.70328177 46.28078528 101.68252755 50.81088549 101.64624023 55.34155273 C101.60081207 61.13985665 101.59979261 66.9371188 101.61327553 72.73555183 C101.61996709 77.20695201 101.60667353 81.67811596 101.58701706 86.14947128 C101.57933747 88.28722776 101.57700649 90.42501057 101.58018875 92.56277847 C101.58093299 95.55204366 101.55561412 98.53998683 101.52319336 101.52905273 C101.52814819 102.40611877 101.53310303 103.28318481 101.53820801 104.18682861 C101.42588029 110.69680671 99.87253607 114.93732411 95.4465332 119.8840332 C89.21626838 124.76814662 84.48196372 125.47745552 76.8125 125.48339844 C75.89803101 125.49172195 74.98356201 125.50004547 74.04138184 125.50862122 C71.02274295 125.53268697 68.00432031 125.54148931 64.9855957 125.5480957 C62.88198279 125.55706482 60.77837053 125.56618672 58.67475891 125.57545471 C54.26574149 125.59193809 49.85679994 125.59964362 45.44775391 125.60253906 C39.80861384 125.60792128 34.17019061 125.645598 28.53125286 125.69128323 C24.18597331 125.72108156 19.84086577 125.72826324 15.49549294 125.72926521 C13.41712983 125.73346218 11.33876595 125.74587535 9.26050377 125.76678276 C6.34761794 125.7937534 3.43638602 125.78885453 0.5234375 125.77636719 C-0.32826523 125.79120148 -1.17996796 125.80603577 -2.05747986 125.82131958 C-8.91365007 125.73796777 -13.66702626 123.42766473 -18.59013844 118.66347408 C-22.19391498 114.59924986 -23.13797416 111.35888861 -23.18002319 106.06732178 C-23.18862366 105.25721146 -23.19722412 104.44710114 -23.20608521 103.61244202 C-23.21034515 102.73236984 -23.2146051 101.85229767 -23.21899414 100.94555664 C-23.22717163 100.01172653 -23.23534912 99.07789642 -23.24377441 98.11576843 C-23.26857717 95.02681106 -23.28513112 91.93789948 -23.29956055 88.84887695 C-23.30488422 87.7923719 -23.3102079 86.73586685 -23.3156929 85.6473465 C-23.34240186 80.05551377 -23.36178425 74.46370321 -23.3762207 68.87182617 C-23.3895613 64.24890361 -23.4174199 59.62642229 -23.45825195 55.00366211 C-23.50760035 49.416351 -23.53234441 43.8294402 -23.53944778 38.24192047 C-23.54615427 36.11609781 -23.56136056 33.99028388 -23.58533859 31.86458588 C-23.61703625 28.88459439 -23.61701979 25.90614192 -23.60961914 22.92602539 C-23.62602448 22.05405014 -23.64242981 21.18207489 -23.65933228 20.28367615 C-23.59692928 14.12183362 -22.00367382 9.92467912 -18.02612305 5.17700195 C-12.03916832 0.50717726 -7.38237802 0.02270402 0 0 Z " fill="#218368" transform="translate(61.026123046875,37.822998046875)"/>
<path d="M0 0 C1.34003334 -0.01007584 1.34003334 -0.01007584 2.70713806 -0.02035522 C5.65605254 -0.03932856 8.60473924 -0.04325936 11.55371094 -0.04541016 C13.61008802 -0.05183949 15.66646419 -0.05856795 17.72283936 -0.06558228 C22.03350951 -0.07755406 26.34409955 -0.08126329 30.65478516 -0.08007812 C36.16369713 -0.07987516 41.67209193 -0.10715454 47.1808815 -0.14162254 C51.42926364 -0.16392296 55.67752206 -0.16791467 59.92595673 -0.16685867 C61.95602955 -0.16921077 63.98610598 -0.17801212 66.01612091 -0.19352341 C68.86397374 -0.21324295 71.71072098 -0.20732152 74.55859375 -0.1953125 C75.80270271 -0.21217102 75.80270271 -0.21217102 77.07194519 -0.22937012 C83.87916425 -0.15687002 89.96063524 1.64793381 95.19433594 6.14208984 C95.63777344 6.72732422 96.08121094 7.31255859 96.53808594 7.91552734 C97.23417969 8.80111328 97.23417969 8.80111328 97.94433594 9.70458984 C100.69685792 13.69574672 100.20104224 17.70320383 100.21508789 22.38671875 C100.22165909 23.33001038 100.22823029 24.273302 100.23500061 25.24517822 C100.25476439 28.37748286 100.26640486 31.50973941 100.27636719 34.64208984 C100.28044271 35.7114616 100.28451824 36.78083336 100.28871727 37.88261032 C100.30959404 43.5457617 100.32388716 49.20888875 100.33325195 54.87207031 C100.34430215 60.71630614 100.37868168 66.56015971 100.41842365 72.40426064 C100.44460178 76.9013641 100.45294502 81.39837682 100.45653343 85.89554977 C100.46139856 88.04926501 100.47301038 90.20297622 100.49157143 92.35661697 C100.51598115 95.37737265 100.51499392 98.39714415 100.50805664 101.41796875 C100.5208667 102.30243683 100.53367676 103.18690491 100.546875 104.09817505 C100.49162451 110.72374617 98.9797557 116.31090056 94.22167969 121.13037109 C93.64546875 121.49259766 93.06925781 121.85482422 92.47558594 122.22802734 C91.89679688 122.60830078 91.31800781 122.98857422 90.72167969 123.38037109 C86.29283409 125.77461941 81.82437019 125.46695382 76.93603516 125.49926758 C76.00395737 125.50905136 75.07187958 125.51883514 74.11155701 125.52891541 C71.02197699 125.55886682 67.93244035 125.58025672 64.84277344 125.59912109 C63.25851248 125.60897883 63.25851248 125.60897883 61.64224625 125.61903572 C56.04927154 125.65163162 50.45631587 125.67607939 44.86328125 125.69555664 C40.24027682 125.71335399 35.61788415 125.74814945 30.99511719 125.7980957 C25.4089327 125.8583791 19.8233145 125.88904408 14.23682022 125.89872932 C12.11180154 125.90727286 9.98679752 125.92606361 7.86196518 125.95547295 C4.87947971 125.99452285 1.89918575 125.99540415 -1.08349609 125.98754883 C-1.95344711 126.00754944 -2.82339813 126.02755005 -3.7197113 126.04815674 C-10.46973876 125.96877279 -14.8446611 123.64043116 -19.96191406 119.29052734 C-23.08654154 115.18945377 -24.07490997 111.31218079 -24.11581421 106.21881104 C-24.12441467 105.41711487 -24.13301514 104.6154187 -24.14187622 103.78942871 C-24.14613617 102.91870728 -24.15039612 102.04798584 -24.15478516 101.15087891 C-24.16296265 100.22680237 -24.17114014 99.30272583 -24.17956543 98.35064697 C-24.2043668 95.29415528 -24.2209218 92.23770987 -24.23535156 89.18115234 C-24.24067524 88.13567986 -24.24599892 87.09020737 -24.25148392 86.01305389 C-24.27819231 80.47957595 -24.29757485 74.94612038 -24.31201172 69.41259766 C-24.32535202 64.83817555 -24.35321013 60.2641994 -24.39404297 55.68994141 C-24.44339453 50.16098432 -24.4681358 44.63243179 -24.4752388 39.10326385 C-24.48194479 36.99976942 -24.49714977 34.89628378 -24.52112961 32.79291534 C-24.55283146 29.84405201 -24.55281022 26.89674368 -24.54541016 23.94775391 C-24.56181549 23.08512939 -24.57822083 22.22250488 -24.59512329 21.33374023 C-24.53180257 15.14532841 -22.83307682 11.11684613 -18.96191406 6.29052734 C-13.07973684 0.70245898 -7.77620773 -0.00841566 0 0 Z " fill="#9EE0CA" transform="translate(202.9619140625,178.70947265625)"/>
<path d="M0 0 C1.32540298 -0.0076664 1.32540298 -0.0076664 2.67758179 -0.01548767 C5.59404304 -0.02936881 8.51026748 -0.02842753 11.42675781 -0.02612305 C13.46071459 -0.03001173 15.49467056 -0.03434675 17.52862549 -0.03910828 C21.7922224 -0.04656801 26.05573652 -0.04628167 30.31933594 -0.04101562 C35.76763304 -0.03523144 41.21558904 -0.05212787 46.6638298 -0.0753603 C50.86588504 -0.09013731 55.06785898 -0.09096376 59.26993561 -0.08785057 C61.27766849 -0.08836212 63.28540613 -0.09356847 65.29311371 -0.10366249 C68.10969257 -0.11608198 70.92561807 -0.10920153 73.7421875 -0.09765625 C74.56224274 -0.10529999 75.38229797 -0.11294373 76.22720337 -0.12081909 C82.6008888 -0.06344711 89.13655733 0.89874055 94.25097656 4.95825195 C94.90259766 5.82643555 94.90259766 5.82643555 95.56738281 6.7121582 C96.01984375 7.28836914 96.47230469 7.86458008 96.93847656 8.45825195 C99.12583703 11.79308021 100.37804515 14.35413051 100.39730835 18.38433838 C100.40583832 19.1944487 100.41436829 20.00455902 100.42315674 20.83921814 C100.42225037 21.71929031 100.42134399 22.59936249 100.42041016 23.50610352 C100.42712738 24.43993362 100.4338446 25.37376373 100.44076538 26.33589172 C100.4597717 29.42490962 100.46367121 32.51371046 100.46582031 35.6027832 C100.47224745 37.75266611 100.47897575 39.90254814 100.48599243 42.0524292 C100.49797254 46.56158474 100.5016726 51.07066364 100.50048828 55.57983398 C100.50028529 61.34781532 100.52756357 67.11530284 100.5620327 72.88316727 C100.58431271 77.32538086 100.58832544 81.76747594 100.58726883 86.20973969 C100.58962404 88.33553516 100.59844302 90.46133394 100.61393356 92.58707428 C100.63361108 95.56694175 100.62774778 98.54574886 100.61572266 101.52563477 C100.62696167 102.39761002 100.63820068 103.26958527 100.64978027 104.16798401 C100.58254094 110.75158697 99.03903177 116.32797184 94.31347656 121.11450195 C93.73726563 121.47672852 93.16105469 121.83895508 92.56738281 122.2121582 C91.98859375 122.59243164 91.40980469 122.97270508 90.81347656 123.36450195 C86.37771787 125.76248751 81.90701997 125.4439314 77.01196289 125.4675293 C76.07827881 125.47570679 75.14459473 125.48388428 74.18261719 125.49230957 C71.08822265 125.51715038 67.993874 125.53367742 64.89941406 125.5480957 C63.31328088 125.55608122 63.31328088 125.55608122 61.6951046 125.56422806 C56.0967926 125.59095555 50.49850286 125.61033066 44.90014648 125.62475586 C40.27038799 125.63809014 35.64107076 125.66593437 31.01147461 125.70678711 C25.4188325 125.75613778 19.82659041 125.78088022 14.23373985 125.78798294 C12.10512617 125.79469032 9.97652123 125.80989893 7.848032 125.83387375 C4.8631426 125.86557316 1.87978966 125.86555447 -1.10522461 125.8581543 C-2.41554405 125.8827623 -2.41554405 125.8827623 -3.75233459 125.90786743 C-9.91891507 125.84552614 -14.11903761 124.25640964 -18.87011719 120.2746582 C-23.54676586 114.27895478 -24.02181528 109.62515215 -24.03125 102.23266602 C-24.03869736 100.84436081 -24.03869736 100.84436081 -24.04629517 99.42800903 C-24.06091852 96.36125956 -24.0677196 93.29456184 -24.07324219 90.2277832 C-24.07899413 88.09649657 -24.08475186 85.96520995 -24.09051514 83.83392334 C-24.10102605 79.36169188 -24.10686792 74.8894784 -24.11035156 70.41723633 C-24.11583207 64.69294603 -24.13985038 58.96889411 -24.16832352 53.2446785 C-24.18696991 48.84026399 -24.1921566 44.43590663 -24.19368744 40.03145599 C-24.19671069 37.92158456 -24.20472815 35.81171406 -24.21787262 33.70188141 C-24.23497235 30.74581413 -24.233043 27.79032551 -24.2265625 24.83422852 C-24.23577728 23.96643768 -24.24499207 23.09864685 -24.25448608 22.20455933 C-24.21264048 16.09548014 -23.32779816 11.14583526 -19.22167969 6.34887695 C-18.65191406 5.89125977 -18.08214844 5.43364258 -17.49511719 4.9621582 C-16.93050781 4.49165039 -16.36589844 4.02114258 -15.78417969 3.53637695 C-10.61239697 0.12722222 -6.00385872 -0.01796054 0 0 Z " fill="#49B291" transform="translate(61.8701171875,178.725341796875)"/>
<path d="M0 0 C1.38655289 -0.01029488 1.38655289 -0.01029488 2.80111694 -0.02079773 C5.84689844 -0.03904993 8.89216399 -0.03523001 11.93798828 -0.02954102 C14.06259325 -0.03410395 16.18719674 -0.03940986 18.3117981 -0.04542542 C22.76196289 -0.05435373 27.21194821 -0.05193695 31.66210938 -0.04199219 C37.35383568 -0.03050997 43.04494089 -0.05070435 48.73658562 -0.07990932 C53.12391063 -0.09829207 57.51108744 -0.09797458 61.89844131 -0.0922718 C63.9963175 -0.09211881 66.09420387 -0.09814524 68.1920433 -0.11056328 C71.13102437 -0.12550832 74.06886608 -0.11476967 77.0078125 -0.09765625 C77.86729492 -0.10732422 78.72677734 -0.11699219 79.61230469 -0.12695312 C86.1538097 -0.04754165 91.71966767 1.52753597 96.47314453 6.22045898 C97.01648438 7.08477539 97.01648438 7.08477539 97.57080078 7.96655273 C97.95107422 8.5453418 98.33134766 9.12413086 98.72314453 9.72045898 C101.12486699 14.16313015 100.79541368 18.63607976 100.81030273 23.5378418 C100.81687393 24.47313217 100.82344513 25.40842255 100.83021545 26.37205505 C100.84994664 29.47126342 100.86161082 32.57042332 100.87158203 35.66967773 C100.87565756 36.72834801 100.87973309 37.78701828 100.88393211 38.87776947 C100.90479231 44.4814179 100.91909414 50.08504184 100.9284668 55.6887207 C100.93952972 61.47361441 100.9739287 67.25812331 101.0136385 73.04288101 C101.03979661 77.49361888 101.04815795 81.94426496 101.05174828 86.39507294 C101.05661646 88.52728626 101.06823702 90.65949542 101.08678627 92.79163361 C101.11115955 95.77896019 101.11021576 98.76528976 101.10327148 101.75268555 C101.11608154 102.62982712 101.1288916 103.50696869 101.14208984 104.41069031 C101.08687603 110.94253699 99.54587987 115.14881728 95.10595703 120.11108398 C88.90132904 124.97509983 84.20094825 125.70273893 76.5637207 125.69458008 C75.65900528 125.7012973 74.75428986 125.70801453 73.82215881 125.7149353 C70.83597293 125.73390826 67.85001192 125.73783926 64.86376953 125.73999023 C62.78257658 125.746419 60.70138454 125.75314742 58.62019348 125.76016235 C54.25824896 125.77213362 49.89638362 125.77584336 45.53442383 125.7746582 C39.95591406 125.77445511 34.37791426 125.80174845 28.79952526 125.83620262 C24.50057156 125.85848452 20.20174029 125.86249533 15.90273476 125.86143875 C13.84671586 125.8637931 11.79069351 125.87260719 9.73473167 125.88810349 C6.85315037 125.90778781 3.97266492 125.90191552 1.09106445 125.88989258 C0.24871246 125.90113159 -0.59363953 125.91237061 -1.46151733 125.9239502 C-7.7836122 125.85721334 -13.15688993 124.36812991 -17.8956728 119.99213219 C-23.14620314 114.04120798 -23.66319764 108.80256433 -23.64135742 101.22680664 C-23.64646835 100.31073135 -23.65157928 99.39465607 -23.65684509 98.45082092 C-23.67072676 95.42735226 -23.66978527 92.40411195 -23.66748047 89.38061523 C-23.6713684 87.27460648 -23.67570327 85.16859851 -23.6804657 83.06259155 C-23.68792501 78.64936786 -23.68763886 74.23622416 -23.68237305 69.82299805 C-23.67658124 64.17497029 -23.69350399 58.52727076 -23.71671772 52.87929726 C-23.73146946 48.52977594 -23.73232474 44.18033338 -23.72920799 39.83079147 C-23.72972056 37.74883754 -23.73494611 35.66687912 -23.74501991 33.58494949 C-23.75739366 30.6697805 -23.75058664 27.75524716 -23.73901367 24.84008789 C-23.74665741 23.98478989 -23.75430115 23.12949188 -23.76217651 22.24827576 C-23.7038217 15.57827396 -22.45143806 10.88320162 -18.05419922 5.65405273 C-12.17119893 0.72875017 -7.39644401 -0.03855819 0 0 Z " fill="#3AA182" transform="translate(202.36669921875,37.595947265625)"/>
<path d="M0 0 C8.19528833 7.71943287 13.39678341 18.25413269 14.00195408 29.57535267 C14.00103229 30.36717284 14.00011049 31.15899302 13.99916077 31.97480774 C14.00122276 33.34821068 14.00122276 33.34821068 14.00332642 34.74935913 C13.9979335 36.2372142 13.9979335 36.2372142 13.99243164 37.75512695 C13.99257767 38.80924271 13.99272369 39.86335846 13.99287415 40.94941711 C13.9921783 44.4285387 13.98440118 47.90760653 13.9765625 51.38671875 C13.97469716 53.80095897 13.9732738 56.21519957 13.97227478 58.62944031 C13.96845876 64.98012336 13.95863626 71.33078351 13.9475708 77.68145752 C13.93733703 84.16328624 13.93277294 90.64511866 13.92773438 97.12695312 C13.91701319 109.8424596 13.89942377 122.55794306 13.87890625 135.2734375 C4.63890625 135.2734375 -4.60109375 135.2734375 -14.12109375 135.2734375 C-14.61609375 126.3634375 -14.61609375 126.3634375 -15.12109375 117.2734375 C-16.21421875 118.7790625 -17.30734375 120.2846875 -18.43359375 121.8359375 C-26.79379022 132.20551452 -38.12521725 137.20099867 -51.19921875 138.83984375 C-64.58030698 140.1637027 -77.50334456 138.48303363 -89.12109375 131.2734375 C-90.18070313 130.62761719 -90.18070313 130.62761719 -91.26171875 129.96875 C-99.84003384 124.17347607 -104.7711961 115.77246655 -107.4609375 105.8984375 C-109.67469856 93.74240041 -109.05844871 81.61586485 -102.6484375 70.78515625 C-94.60990834 59.4780053 -82.30319038 53.91823675 -68.95361328 51.43920898 C-67.45097914 51.18646573 -65.94679713 50.9427998 -64.44140625 50.70703125 C-63.62314865 50.57874435 -62.80489105 50.45045746 -61.96183777 50.31828308 C-52.48799394 48.91851778 -42.99250114 48.47946011 -33.43359375 48.0859375 C-31.64123167 48.00422281 -29.84891327 47.92154415 -28.05664062 47.83789062 C-23.7452108 47.63869566 -19.43341287 47.45230128 -15.12109375 47.2734375 C-15.25263468 44.87969413 -15.39173556 42.48678684 -15.53515625 40.09375 C-15.57133057 39.42126221 -15.60750488 38.74877441 -15.64477539 38.0559082 C-16.08404098 30.92762805 -17.68704069 24.02128406 -22.12109375 18.2734375 C-30.1753008 12.00905424 -39.28604586 10.74182266 -49.28515625 11.51953125 C-58.43426864 12.82820176 -64.92554903 15.2084102 -70.89453125 22.39453125 C-72.47282848 24.67777537 -72.47282848 24.67777537 -74.12109375 29.2734375 C-84.02109375 29.2734375 -93.92109375 29.2734375 -104.12109375 29.2734375 C-100.12588163 13.29258904 -95.28481559 3.90180845 -81.51953125 -4.8671875 C-57.34607509 -18.09312443 -21.80274746 -17.74735613 0 0 Z M-34.99902344 70.33544922 C-36.73232057 70.45971726 -38.46605926 70.57798753 -40.20019531 70.68994141 C-58.94973062 71.60680112 -58.94973062 71.60680112 -74.78515625 80.7265625 C-79.22239858 85.86442204 -79.72388327 90.69213987 -79.52734375 97.30078125 C-78.78034842 102.7667759 -76.4909811 106.2976892 -72.2890625 109.80078125 C-64.30098878 115.23645272 -55.56811373 116.19062391 -46.12109375 115.2734375 C-34.01217558 112.78375339 -25.61655901 108.18183453 -18.53125 98.03125 C-15.14489578 91.40862929 -14.84204624 85.0492201 -14.99609375 77.7734375 C-15.00511719 76.95101562 -15.01414062 76.12859375 -15.0234375 75.28125 C-15.0467251 73.27851667 -15.08258416 71.27593596 -15.12109375 69.2734375 C-21.76233882 69.2734375 -28.37810343 69.85011369 -34.99902344 70.33544922 Z " fill="#2B2B2B" transform="translate(692.12109375,132.7265625)"/>
<path d="M0 0 C9.13447763 10.84899315 15.14943912 23.89247742 17 38 C17.10957031 38.72574219 17.21914062 39.45148438 17.33203125 40.19921875 C18.43015841 48.82317735 18 57.22140031 18 66 C-16.32 66 -50.64 66 -86 66 C-82.48740406 86.00237788 -82.48740406 86.00237788 -70 101 C-58.71837812 108.00884814 -46.81660525 109.65407406 -33.875 106.875 C-28.16792005 105.29833589 -23.45164179 102.92188787 -19 99 C-18.40703125 97.95199219 -17.8140625 96.90398437 -17.203125 95.82421875 C-15.16013767 93.2985928 -14.07055367 93.01061123 -10.79077148 92.51733398 C-6.73990546 92.40843558 -2.73501758 92.4766299 1.3125 92.625 C2.73497003 92.65511718 4.15750098 92.68248995 5.58007812 92.70703125 C9.05465683 92.77293801 12.52694165 92.87635849 16 93 C15.55054587 94.41825223 15.09488853 95.83453934 14.63671875 97.25 C14.25713013 98.43335938 14.25713013 98.43335938 13.86987305 99.640625 C9.34703327 111.90801865 -0.86465321 121.02293129 -12.33203125 126.62890625 C-29.85238528 134.50642188 -51.18728529 136.3024345 -69.65625 130.3125 C-88.10790933 123.0697926 -100.95930017 112.46748207 -109.25 94.1875 C-113.36252756 84.07616558 -115.47543437 73.88473675 -116 63 C-116.04125 62.2265625 -116.0825 61.453125 -116.125 60.65625 C-116.70313987 38.97600469 -110.61429571 16.29478725 -95.52954102 0.25268555 C-84.44656695 -10.83399706 -69.4673355 -18.10414241 -53.6796875 -19.0078125 C-33.19621928 -18.94809393 -15.00212644 -14.97960072 0 0 Z M-76.04296875 18.10546875 C-82.78288255 26.22498111 -84.83752143 33.53769289 -86 44 C-61.25 44 -36.5 44 -11 44 C-13.18773101 27.41437814 -13.18773101 27.41437814 -23 15 C-23.57492187 14.49726563 -24.14984375 13.99453125 -24.7421875 13.4765625 C-40.31755798 0.65346632 -62.48786662 4.13567898 -76.04296875 18.10546875 Z " fill="#2C2C2C" transform="translate(1747,138)"/>
<path d="M0 0 C10.56 0 21.12 0 32 0 C53.66125145 65.72799266 53.66125145 65.72799266 61.47796631 90.19299316 C62.07436929 92.05926335 62.67222142 93.92507107 63.27154541 95.79040527 C64.08928156 98.33799672 64.90118525 100.88736145 65.7109375 103.4375 C66.06554047 104.53895355 66.06554047 104.53895355 66.42730713 105.66265869 C67.34089848 108.56266092 68 110.938568 68 114 C68.66 114 69.32 114 70 114 C70.26683594 112.71883301 70.53367187 111.43766602 70.80859375 110.11767578 C71.94484653 105.01708874 73.45388809 100.08590393 75.0625 95.1171875 C75.36631592 94.16823608 75.67013184 93.21928467 75.9831543 92.24157715 C76.98463252 89.11803892 77.99214665 85.99648649 79 82.875 C79.70330582 80.68706983 80.40642741 78.49908044 81.109375 76.31103516 C89.30371004 50.84072343 97.6493013 25.41937221 106 0 C116.56 0 127.12 0 138 0 C137.23835601 3.80821997 136.37828434 7.00410174 135.07666016 10.61743164 C134.47693642 12.29012619 134.47693642 12.29012619 133.86509705 13.99661255 C133.20870995 15.81006668 133.20870995 15.81006668 132.5390625 17.66015625 C132.07679229 18.94487614 131.61480858 20.22969916 131.15309143 21.51461792 C129.90767482 24.97738514 128.65766957 28.43847915 127.4066124 31.89921188 C126.35846155 34.8002051 125.31281962 37.70210011 124.26710033 40.60397053 C115.73355993 64.28203023 107.13070757 87.93465029 98.4543457 111.5607605 C96.05278984 118.10729209 93.67286884 124.66132341 91.30659485 131.22068787 C89.68276489 135.71901073 88.0512616 140.21453126 86.41885376 144.70974731 C85.65290302 146.82489605 84.89038493 148.9412917 84.13168335 151.05905151 C70.6804825 188.58935216 70.6804825 188.58935216 55.2265625 196.97265625 C54.49179688 197.31167969 53.75703125 197.65070313 53 198 C52.18273438 198.39058594 51.36546875 198.78117188 50.5234375 199.18359375 C38.89714123 203.71189513 26.23762119 202.25102813 14 202 C14 193.75 14 185.5 14 177 C24.125 176.6875 24.125 176.6875 27.28173828 176.61206055 C34.01043612 176.34609644 38.53786056 175.34203507 43.5625 170.5625 C47.11250563 165.98184758 49.05671516 160.40710484 51 155 C51.6199585 153.45977173 51.6199585 153.45977173 52.25244141 151.88842773 C53.25262111 146.68599071 51.95949944 143.52823567 50.07421875 138.6875 C49.74062851 137.78292557 49.40703827 136.87835114 49.06333923 135.94636536 C47.95636383 132.95706784 46.82182539 129.9790146 45.6875 127 C44.90006451 124.88709941 44.11478095 122.77339572 43.33154297 120.65893555 C41.70343663 116.26866387 40.06612048 111.88199319 38.42236328 107.49755859 C35.08844367 98.58313077 31.87188165 89.62693151 28.6529541 80.67050171 C23.717399 66.94826947 18.72996139 53.24515751 13.70703125 39.5546875 C13.26619202 38.35222885 12.82535278 37.1497702 12.37115479 35.91087341 C10.21521956 30.03062341 8.05604554 24.15160181 5.89111328 18.2746582 C5.11347548 16.1558099 4.33596235 14.03691584 3.55859375 11.91796875 C3.19699661 10.94016449 2.83539948 9.96236023 2.46284485 8.95492554 C2.13664658 8.06383087 1.8104483 7.17273621 1.47436523 6.25463867 C1.18810776 5.47706711 0.90185028 4.69949554 0.60691833 3.89836121 C0 2 0 2 0 0 Z " fill="#2C2C2C" transform="translate(1170,121)"/>
<path d="M0 0 C17.77319415 -0.52955513 34.35286319 4.30532736 47.66015625 16.25 C54.26149395 23.15837666 58.97265625 33.54036274 58.97265625 43.125 C49.40265625 43.125 39.83265625 43.125 29.97265625 43.125 C28.65265625 40.155 27.33265625 37.185 25.97265625 34.125 C21.59599336 28.8269344 16.70615887 26.20390171 9.97265625 25.125 C-0.65340649 24.45032935 -10.15782241 24.56598037 -18.58984375 31.625 C-21.58257268 34.37084384 -22.86400453 36.27172808 -23.23046875 40.4296875 C-23.2459375 41.27789062 -23.26140625 42.12609375 -23.27734375 43 C-23.31601562 44.26457031 -23.31601562 44.26457031 -23.35546875 45.5546875 C-22.94326829 48.78359112 -21.90742183 50.47130005 -20.02734375 53.125 C-10.95994947 59.71631341 0.78696885 61.66356762 11.47265625 64.1875 C46.63914162 72.56662582 46.63914162 72.56662582 56.7578125 87.0859375 C61.76672183 95.49317438 63.40707798 105.65780719 61.2890625 115.20703125 C57.74499736 127.83919703 51.46298602 136.77374412 40.2890625 143.81640625 C22.18588467 153.61717688 -1.04980256 155.49116997 -20.96484375 150.5 C-35.24600012 146.18384988 -45.80717248 139.7906789 -53.55078125 126.90234375 C-56.83908911 120.71719326 -58.02734375 116.18152626 -58.02734375 109.125 C-48.12734375 109.125 -38.22734375 109.125 -28.02734375 109.125 C-26.70734375 112.095 -25.38734375 115.065 -24.02734375 118.125 C-19.98095725 123.64279978 -14.5651444 125.76630623 -8.02734375 127.125 C3.65631999 128.26979702 15.81112667 128.39630417 25.47265625 121 C28.7990221 117.79508361 30.34545829 114.97197406 30.9765625 110.390625 C30.96820445 105.54295713 29.70643795 102.04012111 26.44140625 98.43359375 C17.57510024 90.93855964 4.50034544 89.47153683 -6.52734375 87.1875 C-22.48365702 83.72827204 -39.10507125 79.79158069 -48.8125 65.30078125 C-54.52078586 55.07725962 -55.89281387 44.28176327 -52.90234375 32.875 C-48.35253737 19.98740891 -40.5404287 12.4068942 -28.4543457 6.48120117 C-19.34871562 2.25831788 -9.93657897 0.61265997 0 0 Z " fill="#2D2D2D" transform="translate(792.02734375,118.875)"/>
<path d="M0 0 C15.61791227 -0.4935028 31.97101125 2.96095309 44.05859375 13.34765625 C53.39678517 22.27300132 56.56960056 30.22655308 58.9140625 43.12109375 C49.3440625 43.12109375 39.7740625 43.12109375 29.9140625 43.12109375 C28.2640625 39.82109375 26.6140625 36.52109375 24.9140625 33.12109375 C19.62616015 27.4726526 13.94050265 25.4867284 6.38671875 24.80078125 C-1.70905058 24.5542096 -8.86346276 25.23706507 -16.0859375 29.12109375 C-17.09650619 30.11041216 -18.0990841 31.10811776 -19.0859375 32.12109375 C-19.7459375 32.12109375 -20.4059375 32.12109375 -21.0859375 32.12109375 C-23.59125254 38.23576098 -24.70828888 42.63168822 -23.0859375 49.12109375 C-19.73025843 55.02708892 -13.50414781 57.49674375 -7.2109375 59.39453125 C-5.8384067 59.77084345 -4.46323524 60.13762117 -3.0859375 60.49609375 C-2.33119141 60.70032959 -1.57644531 60.90456543 -0.79882812 61.11499023 C3.80962167 62.34807444 8.43608208 63.50088013 13.0703125 64.6328125 C14.1221875 64.89078613 15.1740625 65.14875977 16.2578125 65.41455078 C18.30803737 65.91410279 20.36005152 66.40638771 22.4140625 66.89013672 C36.11926758 70.20821476 48.86457489 75.23775973 56.6953125 87.65234375 C59.89990414 94.14369605 61.45097294 99.66410732 61.3515625 106.93359375 C61.34326416 107.72113037 61.33496582 108.50866699 61.32641602 109.32006836 C61.01556336 120.10035007 57.38794516 128.32225967 49.9140625 136.12109375 C33.82440818 150.9546784 14.53743023 153.02463551 -6.46484375 152.50390625 C-21.5034764 151.83157598 -36.08734902 146.8595717 -47.12109375 136.3046875 C-53.42898723 129.29452357 -59.0859375 118.76894505 -59.0859375 109.12109375 C-48.8559375 109.12109375 -38.6259375 109.12109375 -28.0859375 109.12109375 C-26.6009375 113.08109375 -26.6009375 113.08109375 -25.0859375 117.12109375 C-21.85966308 122.37872614 -17.055967 124.97639324 -11.22314453 126.65820312 C0.12655724 129.11639761 13.28108138 127.85968311 23.3515625 122.18359375 C27.27310657 119.02722901 29.55642247 116.19914315 30.15234375 111.0703125 C30.27736914 107.26032838 30.06925583 104.51683675 28.6640625 100.93359375 C20.72581863 92.81493524 9.28632426 90.68094111 -1.4609375 88.55859375 C-18.07558062 85.21480479 -36.48656648 81.39641402 -47.58203125 67.38671875 C-54.13360906 57.51680932 -55.49920743 47.67818071 -54.0859375 36.12109375 C-51.86746341 25.38106918 -45.03454146 16.34146479 -36.0859375 10.12109375 C-25.08414496 3.35380409 -12.72883021 0.73893958 0 0 Z " fill="#2D2D2D" transform="translate(933.0859375,118.87890625)"/>
<path d="M0 0 C8.50300322 7.89834521 13.67320573 18.08679589 16.0078125 29.3828125 C16.0078125 31.3628125 16.0078125 33.3428125 16.0078125 35.3828125 C6.7678125 35.3828125 -2.4721875 35.3828125 -11.9921875 35.3828125 C-12.9821875 33.2171875 -13.9721875 31.0515625 -14.9921875 28.8203125 C-18.72012333 21.1416664 -23.05500527 15.76073978 -31.1796875 12.5078125 C-42.25255941 9.24040767 -51.22084184 9.88474126 -61.9921875 14.3828125 C-72.78556945 20.44705243 -77.55789773 30.91756821 -80.9921875 42.3828125 C-82.34902831 48.21518437 -82.21532034 53.98416059 -82.2421875 59.9453125 C-82.2628125 61.06228516 -82.2834375 62.17925781 -82.3046875 63.33007812 C-82.37000692 77.41457761 -78.89342298 90.98496759 -69.15625 101.55859375 C-59.82441288 109.42496187 -49.7694225 111.11634271 -37.9921875 110.3828125 C-31.04923952 109.23698332 -24.77563404 106.66816242 -19.9921875 101.3828125 C-17.09393817 96.60922537 -14.75801729 91.68030188 -12.9921875 86.3828125 C-3.4221875 86.3828125 6.1478125 86.3828125 16.0078125 86.3828125 C14.48831899 101.57774764 9.10340252 113.67504614 -2.7421875 123.6953125 C-19.31949782 136.06492632 -38.15066391 138.71670058 -58.35498047 136.07373047 C-72.11415721 133.57119031 -83.2518084 127.2251851 -92.9921875 117.3828125 C-93.92998047 116.49529297 -93.92998047 116.49529297 -94.88671875 115.58984375 C-110.36141118 99.76583547 -113.43771138 76.21766387 -113.20703125 55.19921875 C-112.67150478 34.60639663 -104.97224418 14.73643045 -89.9921875 0.3828125 C-80.93029331 -7.19990652 -69.75420881 -12.94001039 -57.9921875 -14.6171875 C-56.88617188 -14.78154297 -56.88617188 -14.78154297 -55.7578125 -14.94921875 C-35.49778918 -17.56904935 -16.00935133 -12.99582638 0 0 Z " fill="#2D2D2D" transform="translate(483.9921875,134.6171875)"/>
<path d="M0 0 C0 8.25 0 16.5 0 25 C-4.393125 24.9071875 -4.393125 24.9071875 -8.875 24.8125 C-19.3270266 24.56559193 -19.3270266 24.56559193 -29 28 C-30.21647858 29.75362752 -30.21647858 29.75362752 -31 32 C-31.53753906 33.31871094 -31.53753906 33.31871094 -32.0859375 34.6640625 C-33.25252683 38.921615 -33.45623429 42.98149273 -33.625 47.375 C-33.810625 51.644375 -33.810625 51.644375 -34 56 C-23.77 56 -13.54 56 -3 56 C-3 63.92 -3 71.84 -3 80 C-13.23 80 -23.46 80 -34 80 C-34 120.59 -34 161.18 -34 203 C-43.9 203 -53.8 203 -64 203 C-64 162.41 -64 121.82 -64 80 C-71.26 80 -78.52 80 -86 80 C-86 72.08 -86 64.16 -86 56 C-78.74 56 -71.48 56 -64 56 C-64.061875 52.6175 -64.12375 49.235 -64.1875 45.75 C-64.2627535 32.58353158 -62.8223965 20.89893435 -53.9453125 10.62109375 C-38.989495 -4.26117055 -19.17769093 -2.78948232 0 0 Z " fill="#2C2C2C" transform="translate(1159,65)"/>
<path d="M0 0 C9.57 0 19.14 0 29 0 C29 64.68 29 129.36 29 196 C19.43 196 9.86 196 0 196 C0 131.32 0 66.64 0 0 Z " fill="#272727" transform="translate(527,72)"/>
<path d="M0 0 C10.11465512 7.11454555 17.04886 18.41519667 19.4921875 30.49609375 C20.61375953 43.56884317 17.60688182 56.03057597 9.4921875 66.49609375 C0.69549084 76.00809273 -9.39636812 81.71829034 -22.3515625 82.71484375 C-36.01823268 83.13752427 -47.61840647 78.68070109 -57.66015625 69.4375 C-63.86385966 62.91902094 -69.72049123 53.62676798 -69.7578125 44.37109375 C-69.6340625 42.94796875 -69.6340625 42.94796875 -69.5078125 41.49609375 C-68.5178125 42.15609375 -67.5278125 42.81609375 -66.5078125 43.49609375 C-64.48239102 43.85960879 -64.48239102 43.85960879 -62.27734375 43.91015625 C-61.47490234 43.94882813 -60.67246094 43.9875 -59.84570312 44.02734375 C-58.59563477 44.07375 -58.59563477 44.07375 -57.3203125 44.12109375 C-56.47533203 44.15976563 -55.63035156 44.1984375 -54.75976562 44.23828125 C-52.67613726 44.33245654 -50.59200497 44.4153605 -48.5078125 44.49609375 C-48.47042969 45.25535156 -48.43304688 46.01460937 -48.39453125 46.796875 C-48.29591797 48.28767578 -48.29591797 48.28767578 -48.1953125 49.80859375 C-48.13730469 50.79472656 -48.07929688 51.78085938 -48.01953125 52.796875 C-47.45319808 55.78417438 -46.98137921 56.77610201 -44.5078125 58.49609375 C-40.96567265 58.99617169 -40.96567265 58.99617169 -37.5078125 58.49609375 C-35.31787002 55.21118002 -35.15503911 53.66513736 -34.8828125 49.80859375 C-34.80804688 48.81472656 -34.73328125 47.82085937 -34.65625 46.796875 C-34.60726562 46.03761719 -34.55828125 45.27835938 -34.5078125 44.49609375 C-32.1978125 43.83609375 -29.8878125 43.17609375 -27.5078125 42.49609375 C-27.1778125 39.85609375 -26.8478125 37.21609375 -26.5078125 34.49609375 C-29.18259494 32.83339115 -31.5073269 31.49625562 -34.5078125 30.49609375 C-34.59869141 29.35720703 -34.59869141 29.35720703 -34.69140625 28.1953125 C-34.77519531 27.20144531 -34.85898438 26.20757812 -34.9453125 25.18359375 C-35.02652344 24.19746094 -35.10773438 23.21132812 -35.19140625 22.1953125 C-35.42593809 19.40233776 -35.42593809 19.40233776 -36.5078125 16.49609375 C-38.395 16.40328125 -38.395 16.40328125 -40.3203125 16.30859375 C-41.02800781 16.27378906 -41.73570312 16.23898438 -42.46484375 16.203125 C-44.56415635 16.35310136 -44.56415635 16.35310136 -46.2265625 17.65234375 C-47.97230867 20.16451506 -48.01687675 22.15018593 -48.1953125 25.18359375 C-48.26105469 26.17746094 -48.32679688 27.17132813 -48.39453125 28.1953125 C-48.43191406 28.95457031 -48.46929687 29.71382812 -48.5078125 30.49609375 C-49.68859375 30.54507813 -50.869375 30.5940625 -52.0859375 30.64453125 C-53.64325187 30.71958254 -55.20054241 30.79512936 -56.7578125 30.87109375 C-57.53511719 30.90203125 -58.31242188 30.93296875 -59.11328125 30.96484375 C-64.58161157 31.22267617 -64.58161157 31.22267617 -69.5078125 33.49609375 C-70.31602537 24.20164577 -66.32065679 16.68852965 -60.484375 9.66015625 C-44.32715616 -8.0297632 -21.06938309 -12.63506618 0 0 Z " fill="#DFF3EC" transform="translate(266.5078125,62.50390625)"/>
<path d="M0 0 C9.57 0 19.14 0 29 0 C30 1 30 1 30.12304783 3.40318394 C30.12166514 5.01678256 30.12166514 5.01678256 30.12025452 6.66297913 C30.12162918 7.89282028 30.12300385 9.12266144 30.12442017 10.38977051 C30.12088056 11.76513696 30.11724574 13.14050317 30.11352539 14.51586914 C30.11324352 15.95442198 30.11340124 17.39297496 30.1139679 18.83152771 C30.11425589 22.74871143 30.10835884 26.66586479 30.10139394 30.58304143 C30.09516074 34.67233837 30.09455663 38.76163593 30.09336853 42.85093689 C30.09025511 50.59992398 30.08204159 58.34889703 30.07201904 66.09787792 C30.06085822 74.91756209 30.05534753 83.73724691 30.05032361 92.55693638 C30.03985898 110.70463384 30.02151337 128.85231205 30 147 C20.1 147 10.2 147 0 147 C0 98.49 0 49.98 0 0 Z " fill="#2D2D2D" transform="translate(1022,121)"/>
<path d="M0 0 C4.98775632 3.47287992 7.9343518 7.26358841 9.453125 13.19140625 C10.43574791 19.71244917 8.52539568 24.59178844 5.203125 30.12890625 C0.68392588 34.40382433 -3.85379085 36.53731096 -10.109375 36.81640625 C-16.46958276 36.53264313 -21.11236504 34.418522 -25.484375 29.81640625 C-28.85259523 24.63452898 -30.64242089 20.26348418 -29.78125 13.88671875 C-28.14028578 6.96521581 -24.93925307 3.26828012 -19.109375 -0.68359375 C-12.8060712 -4.30799343 -6.10848084 -3.45105118 0 0 Z " fill="#19745D" transform="translate(1360.109375,233.68359375)"/>
<path d="M0 0 C4.3120267 2.53753012 6.87558751 5.82955014 8.625 10.5 C9.64422656 15.7632191 9.20771872 20.14880045 6.625 24.875 C3.67943704 28.93954778 0.47627238 31.19704002 -4.375 32.5 C-10.58875313 33.26789279 -16.14696859 33.2690459 -21.375 29.5 C-25.72188077 25.16337131 -28.16211136 22.05466365 -28.6875 15.75 C-28.61433038 10.06367501 -26.05068928 6.50001623 -22.4375 2.1875 C-16.24209029 -2.88147158 -7.20424332 -3.08948575 0 0 Z " fill="#2F2F2F" transform="translate(1046.375,66.5)"/>
<path d="M0 0 C2.375 1.3125 2.375 1.3125 4 4 C4.32924499 7.69073017 4.22932778 11.30527466 4 15 C4.928125 15.103125 5.85625 15.20625 6.8125 15.3125 C10 16 10 16 11.9375 17.0625 C13.46729807 19.85213177 12.99713779 22.06874252 12.6171875 25.16015625 C12 27 12 27 9 29 C6.3125 29.125 6.3125 29.125 4 29 C4.05220703 30.12148437 4.05220703 30.12148437 4.10546875 31.265625 C4.13253906 32.25046875 4.15960938 33.2353125 4.1875 34.25 C4.23970703 35.71179688 4.23970703 35.71179688 4.29296875 37.203125 C3.95497895 40.42980099 3.30157402 41.7406567 1 44 C-2.78703318 44.55084119 -5.04833828 44.51243324 -8.4375 42.6875 C-10.94613556 38.37264684 -10.30250762 33.87373394 -10 29 C-11.89685547 29.05220703 -11.89685547 29.05220703 -13.83203125 29.10546875 C-15.49217423 29.13360677 -17.15233156 29.16090691 -18.8125 29.1875 C-19.64587891 29.21263672 -20.47925781 29.23777344 -21.33789062 29.26367188 C-22.54155273 29.27817383 -22.54155273 29.27817383 -23.76953125 29.29296875 C-24.87711792 29.31653442 -24.87711792 29.31653442 -26.00708008 29.34057617 C-28.59299895 28.8986606 -29.4471284 28.08600517 -31 26 C-31.47755031 22.24781897 -31.66071435 19.98496995 -29.51953125 16.79296875 C-25.82989191 14.16731843 -22.65715482 14.55997342 -18.25 14.75 C-17.06083984 14.77707031 -17.06083984 14.77707031 -15.84765625 14.8046875 C-13.89791652 14.85166918 -11.94880122 14.92340956 -10 15 C-10.04640625 14.25234375 -10.0928125 13.5046875 -10.140625 12.734375 C-10.43440289 4.71843554 -10.43440289 4.71843554 -8.375 1.3125 C-5.26794769 -0.40455522 -3.50031342 -0.58338557 0 0 Z " fill="#0B5243" transform="translate(228,78)"/>
<path d="M0 0 C0.66 0.33 1.32 0.66 2 1 C-2.95 5.95 -7.9 10.9 -13 16 C-13.66 15.67 -14.32 15.34 -15 15 C-13.25420935 13.0585604 -11.50362507 11.12184216 -9.75 9.1875 C-9.25886719 8.64029297 -8.76773437 8.09308594 -8.26171875 7.52929688 C-5.68270045 4.69237675 -3.19370806 2.16715904 0 0 Z " fill="#519685" transform="translate(36,21)"/>
<path d="M0 0 C0.66 0.33 1.32 0.66 2 1 C-2.95 5.95 -7.9 10.9 -13 16 C-13 10.79628205 -8.49504984 7.5790344 -5 4 C-3.37707762 2.6137538 -1.7331451 1.24569804 0 0 Z " fill="#6C6C6C" transform="translate(399,131)"/>
<path d="M0 0 C0.66 0.33 1.32 0.66 2 1 C-1.3 4.3 -4.6 7.6 -8 11 C-8.66 10.67 -9.32 10.34 -10 10 C-3.84965831 2.51708428 -3.84965831 2.51708428 0 0 Z " fill="#666666" transform="translate(606,131)"/>
</svg>
